<svg width="40" height="55" viewBox="0 0 40 55" fill="none" xmlns="http://www.w3.org/2000/svg">
<path d="M23.3333 14.6094V0H2.5C1.11458 0 0 1.14941 0 2.57812V52.4219C0 53.8506 1.11458 55 2.5 55H37.5C38.8854 55 40 53.8506 40 52.4219V17.1875H25.8333C24.4583 17.1875 23.3333 16.0273 23.3333 14.6094ZM31.2969 37.3141L21.2531 47.5943C20.5604 48.3044 19.4417 48.3044 18.749 47.5943L8.70521 37.3141C7.64792 36.2323 8.38958 34.375 9.87708 34.375H16.6667V25.7812C16.6667 24.8316 17.4125 24.0625 18.3333 24.0625H21.6667C22.5875 24.0625 23.3333 24.8316 23.3333 25.7812V34.375H30.1229C31.6104 34.375 32.3521 36.2323 31.2969 37.3141ZM39.2708 11.2793L29.0729 0.751953C28.6042 0.268555 27.9687 0 27.3021 0H26.6667V13.75H40V13.0947C40 12.418 39.7396 11.7627 39.2708 11.2793Z" fill="#121212"/>
</svg>
