<svg width="69" height="30" viewBox="0 0 69 30" fill="none" xmlns="http://www.w3.org/2000/svg">
<rect width="69" height="30" fill="white"/>
<path d="M10.8523 20H7.75852V11.2727H10.8778C11.7557 11.2727 12.5114 11.4474 13.1449 11.7969C13.7784 12.1435 14.2656 12.642 14.6065 13.2926C14.9503 13.9432 15.1222 14.7216 15.1222 15.6278C15.1222 16.5369 14.9503 17.3182 14.6065 17.9716C14.2656 18.625 13.7756 19.1264 13.1364 19.4759C12.5 19.8253 11.7386 20 10.8523 20ZM9.60369 18.419H10.7756C11.321 18.419 11.7798 18.3224 12.152 18.1293C12.527 17.9332 12.8082 17.6307 12.9957 17.2216C13.1861 16.8097 13.2812 16.2784 13.2812 15.6278C13.2812 14.983 13.1861 14.456 12.9957 14.0469C12.8082 13.6378 12.5284 13.3366 12.1562 13.1435C11.7841 12.9503 11.3253 12.8537 10.7798 12.8537H9.60369V18.419ZM18.3214 20.1236C17.9038 20.1236 17.5316 20.0511 17.2049 19.9062C16.8782 19.7585 16.6197 19.5412 16.4293 19.2543C16.2418 18.9645 16.1481 18.6037 16.1481 18.1719C16.1481 17.8082 16.2148 17.5028 16.3484 17.2557C16.4819 17.0085 16.6637 16.8097 16.8938 16.6591C17.1239 16.5085 17.3853 16.3949 17.6779 16.3182C17.9734 16.2415 18.283 16.1875 18.6069 16.1562C18.9876 16.1165 19.2944 16.0795 19.5273 16.0455C19.7603 16.0085 19.9293 15.9545 20.0344 15.8835C20.1396 15.8125 20.1921 15.7074 20.1921 15.5682V15.5426C20.1921 15.2727 20.1069 15.0639 19.9364 14.9162C19.7688 14.7685 19.5302 14.6946 19.2205 14.6946C18.8938 14.6946 18.6339 14.767 18.4407 14.9119C18.2475 15.054 18.1197 15.233 18.0572 15.4489L16.3782 15.3125C16.4634 14.9148 16.631 14.571 16.881 14.2812C17.131 13.9886 17.4535 13.7642 17.8484 13.608C18.2461 13.4489 18.7063 13.3693 19.229 13.3693C19.5927 13.3693 19.9407 13.4119 20.2731 13.4972C20.6083 13.5824 20.9052 13.7145 21.1637 13.8935C21.4251 14.0724 21.631 14.3026 21.7816 14.5838C21.9322 14.8622 22.0075 15.196 22.0075 15.5852V20H20.2859V19.0923H20.2347C20.1296 19.2969 19.989 19.4773 19.8129 19.6335C19.6367 19.7869 19.4251 19.9077 19.1779 19.9957C18.9308 20.081 18.6452 20.1236 18.3214 20.1236ZM18.8413 18.8707C19.1083 18.8707 19.3441 18.8182 19.5487 18.7131C19.7532 18.6051 19.9137 18.4602 20.0302 18.2784C20.1467 18.0966 20.2049 17.8906 20.2049 17.6605V16.9659C20.1481 17.0028 20.07 17.0369 19.9705 17.0682C19.8739 17.0966 19.7646 17.1236 19.6424 17.1491C19.5202 17.1719 19.3981 17.1932 19.2759 17.2131C19.1538 17.2301 19.043 17.2457 18.9435 17.2599C18.7305 17.2912 18.5444 17.3409 18.3853 17.4091C18.2262 17.4773 18.1026 17.5696 18.0146 17.6861C17.9265 17.7997 17.8825 17.9418 17.8825 18.1122C17.8825 18.3594 17.9719 18.5483 18.1509 18.679C18.3327 18.8068 18.5629 18.8707 18.8413 18.8707ZM26.8974 13.4545V14.8182H22.9556V13.4545H26.8974ZM23.8505 11.8864H25.6658V17.9886C25.6658 18.1562 25.6914 18.2869 25.7425 18.3807C25.7937 18.4716 25.8647 18.5355 25.9556 18.5724C26.0494 18.6094 26.1573 18.6278 26.2795 18.6278C26.3647 18.6278 26.4499 18.6207 26.5352 18.6065C26.6204 18.5895 26.6857 18.5767 26.7312 18.5682L27.0167 19.919C26.9258 19.9474 26.7979 19.9801 26.6332 20.017C26.4684 20.0568 26.2681 20.081 26.0323 20.0895C25.5948 20.1065 25.2113 20.0483 24.8817 19.9148C24.555 19.7812 24.3008 19.5739 24.119 19.2926C23.9371 19.0114 23.8477 18.6562 23.8505 18.2273V11.8864ZM29.9464 20.1236C29.5288 20.1236 29.1566 20.0511 28.8299 19.9062C28.5032 19.7585 28.2447 19.5412 28.0543 19.2543C27.8668 18.9645 27.7731 18.6037 27.7731 18.1719C27.7731 17.8082 27.8398 17.5028 27.9734 17.2557C28.1069 17.0085 28.2887 16.8097 28.5188 16.6591C28.7489 16.5085 29.0103 16.3949 29.3029 16.3182C29.5984 16.2415 29.908 16.1875 30.2319 16.1562C30.6126 16.1165 30.9194 16.0795 31.1523 16.0455C31.3853 16.0085 31.5543 15.9545 31.6594 15.8835C31.7646 15.8125 31.8171 15.7074 31.8171 15.5682V15.5426C31.8171 15.2727 31.7319 15.0639 31.5614 14.9162C31.3938 14.7685 31.1552 14.6946 30.8455 14.6946C30.5188 14.6946 30.2589 14.767 30.0657 14.9119C29.8725 15.054 29.7447 15.233 29.6822 15.4489L28.0032 15.3125C28.0884 14.9148 28.256 14.571 28.506 14.2812C28.756 13.9886 29.0785 13.7642 29.4734 13.608C29.8711 13.4489 30.3313 13.3693 30.854 13.3693C31.2177 13.3693 31.5657 13.4119 31.8981 13.4972C32.2333 13.5824 32.5302 13.7145 32.7887 13.8935C33.0501 14.0724 33.256 14.3026 33.4066 14.5838C33.5572 14.8622 33.6325 15.196 33.6325 15.5852V20H31.9109V19.0923H31.8597C31.7546 19.2969 31.614 19.4773 31.4379 19.6335C31.2617 19.7869 31.0501 19.9077 30.8029 19.9957C30.5558 20.081 30.2702 20.1236 29.9464 20.1236ZM30.4663 18.8707C30.7333 18.8707 30.9691 18.8182 31.1737 18.7131C31.3782 18.6051 31.5387 18.4602 31.6552 18.2784C31.7717 18.0966 31.8299 17.8906 31.8299 17.6605V16.9659C31.7731 17.0028 31.695 17.0369 31.5955 17.0682C31.4989 17.0966 31.3896 17.1236 31.2674 17.1491C31.1452 17.1719 31.0231 17.1932 30.9009 17.2131C30.7788 17.2301 30.668 17.2457 30.5685 17.2599C30.3555 17.2912 30.1694 17.3409 30.0103 17.4091C29.8512 17.4773 29.7276 17.5696 29.6396 17.6861C29.5515 17.7997 29.5075 17.9418 29.5075 18.1122C29.5075 18.3594 29.5969 18.5483 29.7759 18.679C29.9577 18.8068 30.1879 18.8707 30.4663 18.8707ZM35.0408 20V13.4545H36.8008V14.5966H36.869C36.9883 14.1903 37.1886 13.8835 37.4698 13.6761C37.7511 13.4659 38.0749 13.3608 38.4414 13.3608C38.5323 13.3608 38.6303 13.3665 38.7354 13.3778C38.8406 13.3892 38.9329 13.4048 39.0124 13.4247V15.0355C38.9272 15.0099 38.8093 14.9872 38.6587 14.9673C38.5082 14.9474 38.3704 14.9375 38.2454 14.9375C37.9783 14.9375 37.7397 14.9957 37.5295 15.1122C37.3221 15.2259 37.1573 15.3849 37.0352 15.5895C36.9158 15.794 36.8562 16.0298 36.8562 16.2969V20H35.0408ZM39.951 20V13.4545H41.7663V20H39.951ZM40.8629 12.6108C40.593 12.6108 40.3615 12.5213 40.1683 12.3423C39.978 12.1605 39.8828 11.9432 39.8828 11.6903C39.8828 11.4403 39.978 11.2259 40.1683 11.0469C40.3615 10.8651 40.593 10.7741 40.8629 10.7741C41.1328 10.7741 41.3629 10.8651 41.5533 11.0469C41.7464 11.2259 41.843 11.4403 41.843 11.6903C41.843 11.9432 41.7464 12.1605 41.5533 12.3423C41.3629 12.5213 41.1328 12.6108 40.8629 12.6108ZM43.1864 20V18.9176L46.391 14.9503V14.9034H43.2972V13.4545H48.5771V14.6349L45.5685 18.5043V18.5511H48.6879V20H43.1864ZM52.8714 20.1278C52.1982 20.1278 51.6186 19.9915 51.1328 19.7188C50.6499 19.4432 50.2777 19.054 50.0163 18.5511C49.755 18.0455 49.6243 17.4474 49.6243 16.7571C49.6243 16.0838 49.755 15.4929 50.0163 14.9844C50.2777 14.4759 50.6456 14.0795 51.12 13.7955C51.5973 13.5114 52.157 13.3693 52.799 13.3693C53.2308 13.3693 53.6328 13.4389 54.005 13.5781C54.38 13.7145 54.7067 13.9205 54.9851 14.196C55.2663 14.4716 55.4851 14.8182 55.6413 15.2358C55.7976 15.6506 55.8757 16.1364 55.8757 16.6932V17.1918H50.3487V16.0668H54.1669C54.1669 15.8054 54.1101 15.5739 53.9964 15.3722C53.8828 15.1705 53.7251 15.0128 53.5234 14.8991C53.3246 14.7827 53.093 14.7244 52.8288 14.7244C52.5533 14.7244 52.3089 14.7884 52.0959 14.9162C51.8857 15.0412 51.7209 15.2102 51.6016 15.4233C51.4822 15.6335 51.4212 15.8679 51.4183 16.1264V17.196C51.4183 17.5199 51.478 17.7997 51.5973 18.0355C51.7195 18.2713 51.8913 18.4531 52.1129 18.581C52.3345 18.7088 52.5973 18.7727 52.9013 18.7727C53.103 18.7727 53.2876 18.7443 53.4553 18.6875C53.6229 18.6307 53.7663 18.5455 53.8857 18.4318C54.005 18.3182 54.0959 18.179 54.1584 18.0142L55.8374 18.125C55.7521 18.5284 55.5774 18.8807 55.3132 19.1818C55.0518 19.4801 54.7138 19.7131 54.299 19.8807C53.8871 20.0455 53.4112 20.1278 52.8714 20.1278ZM57.0604 20V13.4545H58.8203V14.5966H58.8885C59.0078 14.1903 59.2081 13.8835 59.4893 13.6761C59.7706 13.4659 60.0945 13.3608 60.4609 13.3608C60.5518 13.3608 60.6499 13.3665 60.755 13.3778C60.8601 13.3892 60.9524 13.4048 61.032 13.4247V15.0355C60.9467 15.0099 60.8288 14.9872 60.6783 14.9673C60.5277 14.9474 60.3899 14.9375 60.2649 14.9375C59.9979 14.9375 59.7592 14.9957 59.549 15.1122C59.3416 15.2259 59.1768 15.3849 59.0547 15.5895C58.9354 15.794 58.8757 16.0298 58.8757 16.2969V20H57.0604Z" fill="#121212"/>
<rect x="63" y="24" width="6" height="6" fill="#121212"/>
</svg>
