<svg width="50" height="50" viewBox="0 0 50 50" fill="none" xmlns="http://www.w3.org/2000/svg">
<path fill-rule="evenodd" clip-rule="evenodd" d="M25 0C11.1933 0 0 11.1933 0 25C0 38.8067 11.1933 50 25 50C38.8067 50 50 38.8067 50 25C50 11.1933 38.8067 0 25 0ZM14.1667 25C14.1667 24.0796 14.9129 23.3333 15.8333 23.3333H23.3333V15.8333C23.3333 14.9129 24.0796 14.1667 25 14.1667C25.9204 14.1667 26.6667 14.9129 26.6667 15.8333V23.3333H34.1667C35.0871 23.3333 35.8333 24.0796 35.8333 25C35.8333 25.9204 35.0871 26.6667 34.1667 26.6667H26.6667V34.1667C26.6667 35.0871 25.9204 35.8333 25 35.8333C24.0796 35.8333 23.3333 35.0871 23.3333 34.1667V26.6667H15.8333C14.9129 26.6667 14.1667 25.9204 14.1667 25Z" fill="#121212"/>
</svg>
