<svg width="40" height="40" viewBox="0 0 40 40" fill="none" xmlns="http://www.w3.org/2000/svg">
<path fill-rule="evenodd" clip-rule="evenodd" d="M40 20C40 31.0457 31.0457 40 20 40C8.9543 40 0 31.0457 0 20C0 8.9543 8.9543 0 20 0C31.0457 0 40 8.9543 40 20ZM20.861 30.3794C23.3927 30.2129 25.7774 29.1298 27.5682 27.3325C29.3592 25.535 30.4336 23.1467 30.591 20.6143C30.7482 18.0819 29.9774 15.579 28.4225 13.574L29.5866 12.41C29.9162 12.0804 30.0449 11.5998 29.9244 11.1495C29.8036 10.6991 29.4519 10.3475 29.0016 10.2267C28.5512 10.1059 28.0706 10.2349 27.7411 10.5644L26.577 11.7285C24.7908 10.3409 22.6023 9.57092 20.3409 9.53499C18.0793 9.49905 15.8674 10.1989 14.0384 11.5293C12.2092 12.8596 10.8616 14.7481 10.199 16.9107C9.53621 19.0731 9.59397 21.3924 10.3639 23.5195C11.1336 25.6461 12.5736 27.4653 14.4669 28.7026C16.3602 29.94 18.6042 30.5286 20.8614 30.3801L20.861 30.3794ZM20.186 12.1421C22.2615 12.1421 24.2521 12.9666 25.7196 14.4341C27.1871 15.9016 28.0116 17.8923 28.0116 19.9677C28.0116 22.0432 27.1871 24.0338 25.7196 25.5013C24.2521 26.9688 22.2614 27.7933 20.186 27.7933C18.1105 27.7933 16.1198 26.9688 14.6523 25.5013C13.1848 24.0338 12.3604 22.0432 12.3604 19.9677C12.3604 17.8923 13.1848 15.9016 14.6523 14.4341C16.1198 12.9666 18.1105 12.1421 20.186 12.1421ZM21.1629 20.8184C20.9454 21.0695 20.6427 21.2312 20.3131 21.2722L20.3132 21.2721C19.9459 21.3083 19.5804 21.1868 19.3076 20.9382C19.0347 20.6897 18.88 20.3371 18.8819 19.9679V16.0551C18.8819 15.5891 19.1304 15.1585 19.5339 14.9256C19.9374 14.6925 20.4346 14.6925 20.8381 14.9256C21.2416 15.1585 21.4902 15.5891 21.4902 16.0551V19.9124C21.4968 20.2445 21.3801 20.5673 21.1629 20.8184Z" fill="#121212"/>
</svg>
