<svg width="40" height="40" viewBox="0 0 40 40" fill="none" xmlns="http://www.w3.org/2000/svg">
<path d="M38.7608 3.71699L40 2.47797L37.522 0L36.2829 1.23898L38.7608 3.71699ZM1.23898 36.2832L0 37.522L2.478 40L3.71697 38.7612L1.23898 36.2832ZM3.71697 1.23898L2.478 0L0 2.47797L1.23898 3.71699L3.71697 1.23898ZM36.2829 38.7612L37.522 40L40 37.522L38.7608 36.2832L36.2829 38.7612ZM36.2829 1.23898L1.23898 36.2832L3.71697 38.7612L38.7608 3.71699L36.2829 1.23898ZM1.23898 3.71699L36.2829 38.7612L38.7608 36.2832L3.71697 1.23898L1.23898 3.71699Z" fill="#121212"/>
</svg>
