<svg width="50" height="50" viewBox="0 0 50 50" fill="none" xmlns="http://www.w3.org/2000/svg">
<path fill-rule="evenodd" clip-rule="evenodd" d="M25 50C38.8071 50 50 38.8071 50 25C50 11.1929 38.8071 0 25 0C11.1929 0 0 11.1929 0 25C0 38.8071 11.1929 50 25 50ZM29.8787 17.1747C29.967 17.0583 30.1438 17 30.291 17C30.4675 17 30.615 17.0583 30.7034 17.1167L32.8232 19.2429C33.0588 19.476 33.0588 19.8254 32.8232 20.0585L20.4866 32.4375C20.4277 32.4958 20.3687 32.5541 20.2805 32.5832L16.8062 33.9522C16.6001 34.0398 16.3645 34.0105 16.1877 33.8358C16.0112 33.6901 15.9521 33.428 16.0405 33.224L17.4243 29.7578C17.4539 29.6702 17.4832 29.6121 17.542 29.5538L29.8787 17.1747Z" fill="#121212"/>
</svg>
