<svg width="40" height="40" viewBox="0 0 40 40" fill="none" xmlns="http://www.w3.org/2000/svg">
<path d="M20 0C8.955 0 0 8.955 0 20C0 31.045 8.955 40 20 40C31.045 40 40 31.045 40 20C40 8.955 31.045 0 20 0ZM17.6889 28.6329V19.4771V19.4774C17.6889 18.6518 18.1295 17.8887 18.8444 17.4758C19.5595 17.0631 20.4406 17.0631 21.1557 17.4758C21.8706 17.8887 22.3111 18.6519 22.3111 19.4774V28.6331V28.6329C22.3111 29.4587 21.8706 30.2216 21.1557 30.6345C20.4406 31.0472 19.5594 31.0472 18.8444 30.6345C18.1295 30.2216 17.6889 29.4587 17.6889 28.6329ZM20 14.6446C19.2634 14.6446 18.5566 14.3519 18.0357 13.8309C17.5148 13.31 17.2221 12.6035 17.2221 11.8666C17.2221 11.1301 17.5148 10.4236 18.0357 9.90235C18.5566 9.38142 19.2634 9.08899 20 9.08899C20.7366 9.08899 21.4434 9.38141 21.9643 9.90235C22.4852 10.4236 22.7779 11.1301 22.7779 11.8666C22.7779 12.6035 22.4852 13.31 21.9643 13.8309C21.4434 14.3519 20.7366 14.6446 20 14.6446Z" fill="white"/>
</svg>
