<svg width="40" height="41" viewBox="0 0 40 41" fill="none" xmlns="http://www.w3.org/2000/svg">
<path d="M22.5054 2.5005C22.5054 3.88159 17.4674 5.00101 11.2531 5.00101C5.0388 5.00101 0.000823975 3.88159 0.000823975 2.5005C0.000823975 1.11942 5.0388 0 11.2531 0C17.4674 0 22.5054 1.11942 22.5054 2.5005Z" fill="white"/>
<path d="M0.000671387 18.3233C0.000671387 19.1086 3.68132 20.9239 10.8082 20.999C11.5638 18.7064 12.8269 16.614 14.5039 14.8778C13.4385 14.9577 12.3435 15.0027 11.2331 15.0027C7.00235 15.0027 2.50162 14.3626 0.00138611 13.0025L0.000671387 18.3233Z" fill="white"/>
<path d="M0.000671387 10.4468C0.000671387 11.187 3.94155 13.0024 11.2529 13.0024C13.2972 13.0052 15.3379 12.8381 17.3542 12.5021V12.537C18.9299 11.5212 20.6741 10.7949 22.5052 10.3917V5.03067C20.0047 6.37094 15.504 7.00089 11.2529 7.00089C7.0019 7.00089 2.50117 6.37088 0.000671387 5.03067V10.4468Z" fill="white"/>
<path d="M18.0043 37.5076C20.35 39.1478 23.1435 40.0276 26.0057 40.0276C28.8684 40.0276 31.6615 39.1478 34.0075 37.5076C34.0075 34.6488 32.4824 32.0073 30.0066 30.5778C27.5309 29.1486 24.4806 29.1486 22.0048 30.5778C19.5291 32.0073 18.0043 34.6488 18.0043 37.5076Z" fill="white"/>
<path d="M30.5068 23.0046C30.5068 25.4901 28.4916 27.5054 26.0057 27.5054C23.5199 27.5054 21.505 25.4901 21.505 23.0046C21.505 20.5188 23.5199 18.5035 26.0057 18.5035C28.4916 18.5035 30.5068 20.5188 30.5068 23.0046Z" fill="white"/>
<path d="M26.0059 12.0024C22.289 12.0049 18.7256 13.485 16.1012 16.1166C13.4762 18.7483 12.0052 22.3156 12.0125 26.0329C12.0198 29.7503 13.5045 33.3112 16.1393 35.9331C16.6926 32.4977 18.9866 29.5946 22.2008 28.2618C20.7049 27.1817 19.7387 25.5175 19.5419 23.6832C19.3455 21.8486 19.9375 20.0175 21.1707 18.6452C22.4039 17.2732 24.1616 16.4893 26.0063 16.4893C27.8509 16.4893 29.6091 17.2732 30.8419 18.6452C32.0751 20.0175 32.6671 21.8486 32.4706 23.6832C32.2742 25.5174 31.3076 27.1817 29.812 28.2618C33.0263 29.5947 35.3199 32.4978 35.8732 35.9331C38.5083 33.3116 39.993 29.7503 40 26.0329C40.0073 22.316 38.5362 18.7488 35.9116 16.1166C33.2865 13.485 29.723 12.0048 26.0059 12.0024Z" fill="white"/>
<path d="M0.000669751 25.8597C0.000669751 26.6149 3.47128 28.3253 10.1974 28.4903C9.90783 26.6651 9.94027 24.8034 10.2923 22.9894C6.32663 22.8945 2.31565 22.2393 0 20.9489L0.000669751 25.8597Z" fill="white"/>
</svg>
