<svg width="69" height="30" viewBox="0 0 69 30" fill="none" xmlns="http://www.w3.org/2000/svg">
<rect width="69" height="30" fill="white"/>
<path d="M10.1364 20.1065C9.6392 20.1065 9.18892 19.9787 8.78551 19.723C8.38494 19.4645 8.06676 19.0852 7.83097 18.5852C7.59801 18.0824 7.48153 17.4659 7.48153 16.7358C7.48153 15.9858 7.60227 15.3622 7.84375 14.8651C8.08523 14.3651 8.40625 13.9915 8.80682 13.7443C9.21023 13.4943 9.65199 13.3693 10.1321 13.3693C10.4986 13.3693 10.804 13.4318 11.0483 13.5568C11.2955 13.679 11.4943 13.8324 11.6449 14.017C11.7983 14.1989 11.9148 14.3778 11.9943 14.554H12.0497V11.2727H13.8608V20H12.071V18.9517H11.9943C11.9091 19.1335 11.7884 19.3139 11.6321 19.4929C11.4787 19.669 11.2784 19.8153 11.0312 19.9318C10.7869 20.0483 10.4886 20.1065 10.1364 20.1065ZM10.7116 18.6619C11.0043 18.6619 11.2514 18.5824 11.4531 18.4233C11.6577 18.2614 11.8139 18.0355 11.9219 17.7457C12.0327 17.456 12.0881 17.1165 12.0881 16.7273C12.0881 16.3381 12.0341 16 11.9261 15.7131C11.8182 15.4261 11.6619 15.2045 11.4574 15.0483C11.2528 14.892 11.0043 14.8139 10.7116 14.8139C10.4134 14.8139 10.1619 14.8949 9.95739 15.0568C9.75284 15.2187 9.59801 15.4432 9.4929 15.7301C9.38778 16.017 9.33523 16.3494 9.33523 16.7273C9.33523 17.108 9.38778 17.4446 9.4929 17.7372C9.60085 18.027 9.75568 18.2543 9.95739 18.419C10.1619 18.581 10.4134 18.6619 10.7116 18.6619ZM17.2198 20.1236C16.8022 20.1236 16.43 20.0511 16.1033 19.9062C15.7766 19.7585 15.5181 19.5412 15.3278 19.2543C15.1403 18.9645 15.0465 18.6037 15.0465 18.1719C15.0465 17.8082 15.1133 17.5028 15.2468 17.2557C15.3803 17.0085 15.5621 16.8097 15.7923 16.6591C16.0224 16.5085 16.2837 16.3949 16.5763 16.3182C16.8718 16.2415 17.1815 16.1875 17.5053 16.1562C17.886 16.1165 18.1928 16.0795 18.4258 16.0455C18.6587 16.0085 18.8278 15.9545 18.9329 15.8835C19.038 15.8125 19.0906 15.7074 19.0906 15.5682V15.5426C19.0906 15.2727 19.0053 15.0639 18.8349 14.9162C18.6673 14.7685 18.4286 14.6946 18.119 14.6946C17.7923 14.6946 17.5323 14.767 17.3391 14.9119C17.146 15.054 17.0181 15.233 16.9556 15.4489L15.2766 15.3125C15.3619 14.9148 15.5295 14.571 15.7795 14.2812C16.0295 13.9886 16.3519 13.7642 16.7468 13.608C17.1445 13.4489 17.6048 13.3693 18.1275 13.3693C18.4911 13.3693 18.8391 13.4119 19.1715 13.4972C19.5067 13.5824 19.8036 13.7145 20.0621 13.8935C20.3235 14.0724 20.5295 14.3026 20.68 14.5838C20.8306 14.8622 20.9059 15.196 20.9059 15.5852V20H19.1843V19.0923H19.1332C19.0281 19.2969 18.8874 19.4773 18.7113 19.6335C18.5352 19.7869 18.3235 19.9077 18.0763 19.9957C17.8292 20.081 17.5437 20.1236 17.2198 20.1236ZM17.7397 18.8707C18.0067 18.8707 18.2425 18.8182 18.4471 18.7131C18.6516 18.6051 18.8121 18.4602 18.9286 18.2784C19.0451 18.0966 19.1033 17.8906 19.1033 17.6605V16.9659C19.0465 17.0028 18.9684 17.0369 18.869 17.0682C18.7724 17.0966 18.663 17.1236 18.5408 17.1491C18.4187 17.1719 18.2965 17.1932 18.1744 17.2131C18.0522 17.2301 17.9414 17.2457 17.842 17.2599C17.6289 17.2912 17.4428 17.3409 17.2837 17.4091C17.1246 17.4773 17.0011 17.5696 16.913 17.6861C16.8249 17.7997 16.7809 17.9418 16.7809 18.1122C16.7809 18.3594 16.8704 18.5483 17.0494 18.679C17.2312 18.8068 17.4613 18.8707 17.7397 18.8707ZM25.7958 13.4545V14.8182H21.854V13.4545H25.7958ZM22.7489 11.8864H24.5643V17.9886C24.5643 18.1562 24.5898 18.2869 24.641 18.3807C24.6921 18.4716 24.7631 18.5355 24.854 18.5724C24.9478 18.6094 25.0558 18.6278 25.1779 18.6278C25.2631 18.6278 25.3484 18.6207 25.4336 18.6065C25.5188 18.5895 25.5842 18.5767 25.6296 18.5682L25.9151 19.919C25.8242 19.9474 25.6964 19.9801 25.5316 20.017C25.3668 20.0568 25.1665 20.081 24.9308 20.0895C24.4933 20.1065 24.1097 20.0483 23.7802 19.9148C23.4535 19.7812 23.1992 19.5739 23.0174 19.2926C22.8356 19.0114 22.7461 18.6562 22.7489 18.2273V11.8864ZM28.8448 20.1236C28.4272 20.1236 28.055 20.0511 27.7283 19.9062C27.4016 19.7585 27.1431 19.5412 26.9528 19.2543C26.7653 18.9645 26.6715 18.6037 26.6715 18.1719C26.6715 17.8082 26.7383 17.5028 26.8718 17.2557C27.0053 17.0085 27.1871 16.8097 27.4173 16.6591C27.6474 16.5085 27.9087 16.3949 28.2013 16.3182C28.4968 16.2415 28.8065 16.1875 29.1303 16.1562C29.511 16.1165 29.8178 16.0795 30.0508 16.0455C30.2837 16.0085 30.4528 15.9545 30.5579 15.8835C30.663 15.8125 30.7156 15.7074 30.7156 15.5682V15.5426C30.7156 15.2727 30.6303 15.0639 30.4599 14.9162C30.2923 14.7685 30.0536 14.6946 29.744 14.6946C29.4173 14.6946 29.1573 14.767 28.9641 14.9119C28.771 15.054 28.6431 15.233 28.5806 15.4489L26.9016 15.3125C26.9869 14.9148 27.1545 14.571 27.4045 14.2812C27.6545 13.9886 27.9769 13.7642 28.3718 13.608C28.7695 13.4489 29.2298 13.3693 29.7525 13.3693C30.1161 13.3693 30.4641 13.4119 30.7965 13.4972C31.1317 13.5824 31.4286 13.7145 31.6871 13.8935C31.9485 14.0724 32.1545 14.3026 32.305 14.5838C32.4556 14.8622 32.5309 15.196 32.5309 15.5852V20H30.8093V19.0923H30.7582C30.6531 19.2969 30.5124 19.4773 30.3363 19.6335C30.1602 19.7869 29.9485 19.9077 29.7013 19.9957C29.4542 20.081 29.1687 20.1236 28.8448 20.1236ZM29.3647 18.8707C29.6317 18.8707 29.8675 18.8182 30.0721 18.7131C30.2766 18.6051 30.4371 18.4602 30.5536 18.2784C30.6701 18.0966 30.7283 17.8906 30.7283 17.6605V16.9659C30.6715 17.0028 30.5934 17.0369 30.494 17.0682C30.3974 17.0966 30.288 17.1236 30.1658 17.1491C30.0437 17.1719 29.9215 17.1932 29.7994 17.2131C29.6772 17.2301 29.5664 17.2457 29.467 17.2599C29.2539 17.2912 29.0678 17.3409 28.9087 17.4091C28.7496 17.4773 28.6261 17.5696 28.538 17.6861C28.4499 17.7997 28.4059 17.9418 28.4059 18.1122C28.4059 18.3594 28.4954 18.5483 28.6744 18.679C28.8562 18.8068 29.0863 18.8707 29.3647 18.8707ZM33.9393 20V13.4545H35.6992V14.5966H35.7674C35.8867 14.1903 36.087 13.8835 36.3683 13.6761C36.6495 13.4659 36.9734 13.3608 37.3398 13.3608C37.4308 13.3608 37.5288 13.3665 37.6339 13.3778C37.739 13.3892 37.8313 13.4048 37.9109 13.4247V15.0355C37.8256 15.0099 37.7077 14.9872 37.5572 14.9673C37.4066 14.9474 37.2688 14.9375 37.1438 14.9375C36.8768 14.9375 36.6381 14.9957 36.4279 15.1122C36.2205 15.2259 36.0558 15.3849 35.9336 15.5895C35.8143 15.794 35.7546 16.0298 35.7546 16.2969V20H33.9393ZM38.8494 20V13.4545H40.6648V20H38.8494ZM39.7614 12.6108C39.4915 12.6108 39.2599 12.5213 39.0668 12.3423C38.8764 12.1605 38.7812 11.9432 38.7812 11.6903C38.7812 11.4403 38.8764 11.2259 39.0668 11.0469C39.2599 10.8651 39.4915 10.7741 39.7614 10.7741C40.0313 10.7741 40.2614 10.8651 40.4517 11.0469C40.6449 11.2259 40.7415 11.4403 40.7415 11.6903C40.7415 11.9432 40.6449 12.1605 40.4517 12.3423C40.2614 12.5213 40.0313 12.6108 39.7614 12.6108ZM42.0849 20V18.9176L45.2894 14.9503V14.9034H42.1957V13.4545H47.4755V14.6349L44.467 18.5043V18.5511H47.5863V20H42.0849ZM51.7699 20.1278C51.0966 20.1278 50.517 19.9915 50.0312 19.7188C49.5483 19.4432 49.1761 19.054 48.9148 18.5511C48.6534 18.0455 48.5227 17.4474 48.5227 16.7571C48.5227 16.0838 48.6534 15.4929 48.9148 14.9844C49.1761 14.4759 49.544 14.0795 50.0185 13.7955C50.4957 13.5114 51.0554 13.3693 51.6974 13.3693C52.1293 13.3693 52.5313 13.4389 52.9034 13.5781C53.2784 13.7145 53.6051 13.9205 53.8835 14.196C54.1648 14.4716 54.3835 14.8182 54.5398 15.2358C54.696 15.6506 54.7741 16.1364 54.7741 16.6932V17.1918H49.2472V16.0668H53.0653C53.0653 15.8054 53.0085 15.5739 52.8949 15.3722C52.7813 15.1705 52.6236 15.0128 52.4219 14.8991C52.223 14.7827 51.9915 14.7244 51.7273 14.7244C51.4517 14.7244 51.2074 14.7884 50.9943 14.9162C50.7841 15.0412 50.6193 15.2102 50.5 15.4233C50.3807 15.6335 50.3196 15.8679 50.3168 16.1264V17.196C50.3168 17.5199 50.3764 17.7997 50.4957 18.0355C50.6179 18.2713 50.7898 18.4531 51.0114 18.581C51.233 18.7088 51.4957 18.7727 51.7997 18.7727C52.0014 18.7727 52.1861 18.7443 52.3537 18.6875C52.5213 18.6307 52.6648 18.5455 52.7841 18.4318C52.9034 18.3182 52.9943 18.179 53.0568 18.0142L54.7358 18.125C54.6506 18.5284 54.4759 18.8807 54.2116 19.1818C53.9503 19.4801 53.6122 19.7131 53.1974 19.8807C52.7855 20.0455 52.3097 20.1278 51.7699 20.1278ZM55.9588 20V13.4545H57.7188V14.5966H57.7869C57.9063 14.1903 58.1065 13.8835 58.3878 13.6761C58.669 13.4659 58.9929 13.3608 59.3594 13.3608C59.4503 13.3608 59.5483 13.3665 59.6534 13.3778C59.7585 13.3892 59.8509 13.4048 59.9304 13.4247V15.0355C59.8452 15.0099 59.7273 14.9872 59.5767 14.9673C59.4261 14.9474 59.2884 14.9375 59.1634 14.9375C58.8963 14.9375 58.6577 14.9957 58.4474 15.1122C58.2401 15.2259 58.0753 15.3849 57.9531 15.5895C57.8338 15.794 57.7741 16.0298 57.7741 16.2969V20H55.9588Z" fill="#121212"/>
<rect x="63" y="24" width="6" height="6" fill="#121212"/>
</svg>
