<svg width="54" height="54" viewBox="0 0 54 54" fill="none" xmlns="http://www.w3.org/2000/svg">
<path d="M28.752 2.22029L28.7522 0.467919L25.2478 0.46794L25.2477 2.22021L28.752 2.22029ZM25.2479 51.78L25.2478 53.5321L28.7522 53.5321L28.7523 51.78L25.2479 51.78ZM2.22008 25.2478L0.467909 25.2478L0.467888 28.7522L2.2201 28.7522L2.22008 25.2478ZM51.7799 28.7524L53.532 28.7522V25.2478L51.7798 25.2481L51.7799 28.7524ZM25.2477 2.22021L25.2479 51.78L28.7523 51.78L28.752 2.22029L25.2477 2.22021ZM2.2201 28.7522L51.7799 28.7524L51.7798 25.2481L2.22008 25.2478L2.2201 28.7522Z" fill="#121212"/>
</svg>
