<svg width="479" height="539" viewBox="0 0 479 539" fill="none" xmlns="http://www.w3.org/2000/svg">
<path d="M328.52 77.4667C322.546 75.2271 315.083 78.2114 312.837 84.1855C310.598 90.1595 313.582 97.6228 319.556 99.8681C401.692 132.723 454.703 211.123 454.703 299.228C453.958 417.947 357.64 514.268 239.663 514.268C121.685 514.268 25.3695 417.951 25.3695 299.975C25.3695 189.469 108.995 98.3748 216.516 86.4281L173.209 132.72C168.73 137.949 168.73 145.413 173.954 149.892C176.194 152.132 179.183 152.877 182.168 152.877C185.152 152.877 188.887 151.382 191.126 149.142L254.596 80.4488C256.835 78.2092 258.33 74.4748 257.58 71.4904C257.58 68.506 256.085 64.7716 253.101 63.2768L181.418 3.54213C176.189 -0.93707 168.725 -0.192268 164.246 5.03693C159.767 10.2661 160.512 17.7296 165.741 22.2089L214.272 62.5263C94.8076 74.4793 0.724915 176.026 0.724915 299.233C0.724915 430.645 108.246 538.166 239.658 538.166C371.07 538.166 478.592 431.396 478.592 299.233C478.592 201.416 419.608 114.06 328.512 77.4729L328.52 77.4667Z" fill="#121212"/>
</svg>
