<svg width="40" height="46" viewBox="0 0 40 46" fill="none" xmlns="http://www.w3.org/2000/svg">
<path d="M35.3387 2.76015e-05H4.66173C2.09154 2.76015e-05 0 2.09157 0 4.66175V40.5859C0 42.4317 1.04256 44.056 2.72049 44.8241C4.39841 45.5929 6.30933 45.3214 7.70672 44.1153L19.073 34.3088C19.61 33.8455 20.3892 33.8455 20.9266 34.3088L32.2928 44.1153C33.1644 44.867 34.2345 45.2559 35.3235 45.2552C35.9815 45.2552 36.6473 45.1135 37.2788 44.824C38.9567 44.0559 39.9993 42.4316 39.9993 40.5859L40 4.66173C40 2.09154 37.9092 0 35.3383 0L35.3387 2.76015e-05ZM36.7577 40.5861C36.7577 41.165 36.4557 41.6351 35.9298 41.8763C35.4038 42.117 34.8508 42.0383 34.4121 41.6605L23.0449 31.854C22.1627 31.093 21.0812 30.7127 20 30.7127C18.9187 30.7127 17.8369 31.093 16.955 31.854L5.5887 41.6605C5.15079 42.0383 4.59733 42.1174 4.07106 41.8763C3.54442 41.6355 3.24317 41.165 3.24317 40.5861L3.24281 4.66194C3.24281 3.87949 3.87929 3.24303 4.66172 3.24303H35.3387C36.1212 3.24303 36.7576 3.87951 36.7576 4.66194L36.7577 40.5861Z" fill="#121212"/>
</svg>
