<svg width="40" height="43" viewBox="0 0 40 43" fill="none" xmlns="http://www.w3.org/2000/svg">
<path d="M11.8918 8.10813C11.8918 8.25148 11.9486 8.38902 12.05 8.49037C12.1513 8.59173 12.2889 8.64855 12.4322 8.64855H23.2433C23.3867 8.64855 23.5242 8.59172 23.6256 8.49037C23.7269 8.38903 23.7838 8.25148 23.7838 8.10813V1.52588e-05H11.8922L11.8918 8.10813Z" fill="black"/>
<path d="M30.2699 23.243C30.2699 23.0996 30.2131 22.9621 30.1118 22.8607C30.0104 22.7594 29.8729 22.7026 29.7295 22.7026H10.27C9.9714 22.7026 9.72961 22.9447 9.72961 23.243V42.1622H30.2705L30.2699 23.243ZM24.3242 35.6757H15.6753C15.0962 35.6757 14.5608 35.3666 14.2713 34.8649C13.9813 34.3632 13.9813 33.745 14.2713 33.2433C14.5608 32.7416 15.0962 32.4325 15.6753 32.4325H24.3242C24.9034 32.4325 25.4387 32.7416 25.7283 33.2433C26.0182 33.745 26.0182 34.3632 25.7283 34.8649C25.4387 35.3666 24.9033 35.6757 24.3242 35.6757ZM25.4054 29.1892H14.5943C14.0148 29.1892 13.4795 28.8801 13.1899 28.3784C12.9003 27.8767 12.9003 27.2585 13.1899 26.7568C13.4795 26.2551 14.0148 25.946 14.5943 25.946H25.4054H25.4051C25.9846 25.946 26.5199 26.2551 26.8095 26.7568C27.0991 27.2585 27.0991 27.8767 26.8095 28.3784C26.5199 28.8801 25.9846 29.1892 25.4051 29.1892H25.4054Z" fill="black"/>
<path d="M0.000212092 5.94628V36.216C0.00129802 37.7927 0.628226 39.3043 1.74276 40.4191C2.85761 41.534 4.36961 42.1609 5.94592 42.162H6.48634L6.4867 23.2428C6.48778 22.2398 6.88667 21.278 7.59617 20.5686C8.30562 19.8595 9.26737 19.4602 10.2704 19.4591H29.7298C30.7328 19.4602 31.6946 19.8595 32.404 20.5686C33.1135 21.2781 33.5124 22.2398 33.5135 23.2428V42.162H34.0543C35.6307 42.161 37.1426 41.534 38.2574 40.4191C39.3719 39.3043 39.9989 37.7927 40 36.216V13.946C40.0011 12.5966 39.5439 11.2866 38.7027 10.2314L32.3005 2.23156V2.2312C31.1734 0.816584 29.4608 -0.00544009 27.6521 2.70995e-05H27.027V8.10815C27.0259 9.11114 26.627 10.0729 25.9175 10.7823C25.208 11.4918 24.2463 11.8907 23.2433 11.8918H12.4322C11.4292 11.8907 10.4674 11.4918 9.758 10.7823C9.04891 10.0729 8.64965 9.11114 8.64854 8.10815V2.70995e-05H5.94571C4.3693 0.00111303 2.85739 0.62804 1.74255 1.74295C0.628077 2.85779 0.00111197 4.36942 0 5.9461L0.000212092 5.94628Z" fill="black"/>
</svg>
