<svg width="40" height="44" viewBox="0 0 40 44" fill="none" xmlns="http://www.w3.org/2000/svg">
<path d="M31.4286 27.5C29.41 27.5 27.5547 28.1719 26.0902 29.2957L16.9396 23.791C17.2106 22.6112 17.2106 21.3887 16.9396 20.2089L26.0902 14.7043C27.5547 15.8281 29.41 16.5 31.4286 16.5C36.1624 16.5 40 12.8063 40 8.25C40 3.69368 36.1624 0 31.4286 0C26.6947 0 22.8571 3.69368 22.8571 8.25C22.8571 8.86514 22.9277 9.4643 23.0604 10.041L13.9098 15.5457C12.4453 14.4219 10.59 13.75 8.57143 13.75C3.83759 13.75 0 17.4437 0 22C0 26.5563 3.83759 30.25 8.57143 30.25C10.59 30.25 12.4453 29.5781 13.9098 28.4543L23.0604 33.959C22.9251 34.5471 22.857 35.1477 22.8571 35.75C22.8571 40.3063 26.6947 44 31.4286 44C36.1624 44 40 40.3063 40 35.75C40 31.1937 36.1624 27.5 31.4286 27.5Z" fill="black"/>
</svg>
