<svg width="40" height="49" viewBox="0 0 40 49" fill="none" xmlns="http://www.w3.org/2000/svg">
<path d="M38.5714 3.05557H27.8571L27.0179 1.26998C26.8401 0.888242 26.5662 0.56713 26.2271 0.342772C25.8879 0.118414 25.497 -0.000289128 25.0982 1.67413e-05H14.8929C14.495 -0.00161899 14.1047 0.116642 13.7668 0.341249C13.4289 0.565857 13.1569 0.887727 12.9821 1.26998L12.1429 3.05557H1.42857C1.04969 3.05557 0.686328 3.21653 0.418419 3.50305C0.15051 3.78956 0 4.17816 0 4.58335L0 7.6389C0 8.04409 0.15051 8.43269 0.418419 8.7192C0.686328 9.00572 1.04969 9.16668 1.42857 9.16668H38.5714C38.9503 9.16668 39.3137 9.00572 39.5816 8.7192C39.8495 8.43269 40 8.04409 40 7.6389V4.58335C40 4.17816 39.8495 3.78956 39.5816 3.50305C39.3137 3.21653 38.9503 3.05557 38.5714 3.05557ZM4.75 44.592C4.81814 45.7556 5.29836 46.8477 6.09291 47.646C6.88746 48.4443 7.93661 48.8887 9.02679 48.8889H30.9732C32.0634 48.8887 33.1125 48.4443 33.9071 47.646C34.7016 46.8477 35.1819 45.7556 35.25 44.592L37.1429 12.2222H2.85714L4.75 44.592Z" fill="black"/>
</svg>
