<svg width="479" height="531" viewBox="0 0 479 531" fill="none" xmlns="http://www.w3.org/2000/svg">
<path d="M478.6 97.3334C478.6 93.375 477.027 89.573 474.225 86.7761C471.428 83.9739 467.626 82.4011 463.668 82.4011H351.668V45.0678C351.668 33.1875 346.949 21.7918 338.548 13.3905C330.147 4.98419 318.751 0.265381 306.865 0.265381H172.465C160.58 0.265381 149.184 4.98419 140.783 13.3905C132.382 21.7915 127.663 33.1878 127.663 45.0678V82.4011H15.6629C7.41291 82.4011 0.730927 89.0834 0.730927 97.3331C0.730927 105.583 7.41318 112.265 15.6629 112.265H38.6576L71.7363 476.039C73.0852 490.935 79.9655 504.778 91.0283 514.841C102.086 524.909 116.518 530.456 131.471 530.399H348.004C362.958 530.456 377.39 524.909 388.447 514.841C399.509 504.779 406.39 490.935 407.734 476.039L440.666 112.265H463.66C467.619 112.265 471.421 110.692 474.218 107.89C477.02 105.093 478.593 101.291 478.593 97.3329L478.6 97.3334ZM157.533 45.0681C157.533 36.8181 164.221 30.1361 172.471 30.1361H306.871C310.834 30.1361 314.631 31.709 317.433 34.5058C320.235 37.3079 321.808 41.1047 321.808 45.0683V82.4017H157.541L157.533 45.0681ZM377.8 473.348C377.123 480.796 373.685 487.717 368.154 492.749C362.623 497.781 355.409 500.557 347.93 500.525H131.397C123.918 500.557 116.703 497.781 111.173 492.749C105.642 487.718 102.204 480.796 101.527 473.348L68.6776 112.255H410.651L377.8 473.348Z" fill="#121212"/>
</svg>
