<svg width="40" height="33" viewBox="0 0 40 33" fill="none" xmlns="http://www.w3.org/2000/svg">
<path fill-rule="evenodd" clip-rule="evenodd" d="M1.81837 7.27253H23.9464C24.6952 9.39105 26.7156 10.9089 29.0907 10.9089C31.4655 10.9089 33.486 9.39105 34.2348 7.27253H38.1813C39.1855 7.27253 39.9997 6.45864 39.9997 5.45447C39.9997 4.45031 39.1855 3.63642 38.1813 3.63642H34.2348C33.486 1.5179 31.4655 0 29.0907 0C26.7157 0 24.6952 1.5179 23.9464 3.63642H1.81837C0.814197 3.63642 0 4.45031 0 5.45447C0 6.45864 0.814197 7.27253 1.81837 7.27253ZM29.0907 3.63642C28.0866 3.63642 27.2724 4.45031 27.2724 5.45447C27.2724 6.45864 28.0866 7.27253 29.0907 7.27253C30.0949 7.27253 30.9088 6.45864 30.9088 5.45447C30.9088 4.45031 30.0949 3.63642 29.0907 3.63642ZM5.76507 18.1812H1.81852C0.814353 18.1812 0.000155757 17.3673 0.000155757 16.3631C0.000155757 15.3589 0.814353 14.5451 1.81852 14.5451H5.76507C6.51384 12.4265 8.5343 10.9086 10.9091 10.9086C13.2841 10.9086 15.3046 12.4265 16.0535 14.5451H38.1815C39.1856 14.5451 39.9998 15.3589 39.9998 16.3631C39.9998 17.3673 39.1856 18.1812 38.1815 18.1812H16.0535C15.3047 20.2997 13.2842 21.8176 10.9091 21.8176C8.5343 21.8176 6.51389 20.2997 5.76507 18.1812ZM9.09105 16.3631C9.09105 15.3589 9.90494 14.5451 10.9091 14.5451C11.9133 14.5451 12.7275 15.3589 12.7275 16.3631C12.7275 17.3673 11.9133 18.1812 10.9091 18.1812C9.90494 18.1812 9.09105 17.3673 9.09105 16.3631ZM23.9467 29.09H1.81868C0.814509 29.09 0.000311513 28.2761 0.000311513 27.2719C0.000311513 26.2677 0.814509 25.4538 1.81868 25.4538H23.9467C24.6955 23.3353 26.7159 21.8174 29.0911 21.8174C31.4659 21.8174 33.4863 23.3353 34.2351 25.4538H38.1816C39.1858 25.4538 40 26.2677 40 27.2719C40 28.2761 39.1858 29.09 38.1816 29.09H34.2351C33.4863 31.2085 31.4659 32.7264 29.0911 32.7264C26.716 32.7264 24.6955 31.2085 23.9467 29.09ZM27.2727 27.2719C27.2727 26.2677 28.0869 25.4538 29.0911 25.4538C30.0952 25.4538 30.9091 26.2677 30.9091 27.2719C30.9091 28.2761 30.0952 29.09 29.0911 29.09C28.0869 29.09 27.2727 28.2761 27.2727 27.2719Z" fill="black"/>
</svg>
